<mxfile host="app.diagrams.net" modified="2023-11-02T21:49:25.747Z" agent="Mozilla/5.0 (Windows NT 10.0; Win64; x64) AppleWebKit/537.36 (KHTML, like Gecko) Chrome/117.0.0.0 Safari/537.36 Edg/117.0.2045.60" etag="UrdDMgDO_4k_D5dv8G0d" version="22.0.8" type="github" pages="4">
  <diagram name="Page-1" id="XYrzflARZwRtqfOlGOkY">
    <mxGraphModel grid="1" page="1" gridSize="10" guides="1" tooltips="1" connect="1" arrows="1" fold="1" pageScale="1" pageWidth="850" pageHeight="1100" math="0" shadow="0">
      <root>
        <mxCell id="0" />
        <mxCell id="1" parent="0" />
        <mxCell id="VEFbPBKXFdE8StxeSwfn-1" value="" style="rounded=0;whiteSpace=wrap;html=1;" parent="1" vertex="1">
          <mxGeometry x="-2450" y="-660" width="1070" height="710" as="geometry" />
        </mxCell>
        <mxCell id="VEFbPBKXFdE8StxeSwfn-2" value="&lt;b&gt;&lt;font style=&quot;font-size: 14px;&quot;&gt;Main Login Window&lt;/font&gt;&lt;/b&gt;" style="text;html=1;strokeColor=none;fillColor=none;align=center;verticalAlign=middle;whiteSpace=wrap;rounded=0;" parent="1" vertex="1">
          <mxGeometry x="-2002.5" y="-720" width="155" height="30" as="geometry" />
        </mxCell>
        <mxCell id="VEFbPBKXFdE8StxeSwfn-6" value="&lt;span style=&quot;font-size: 38px;&quot;&gt;Discrete Math - Linear Independence&lt;br&gt;&lt;/span&gt;" style="rounded=1;whiteSpace=wrap;html=1;" parent="1" vertex="1">
          <mxGeometry x="-2140" y="-650" width="660" height="60" as="geometry" />
        </mxCell>
        <mxCell id="VEFbPBKXFdE8StxeSwfn-7" value="&lt;span style=&quot;font-size: 24px;&quot;&gt;Topics&lt;/span&gt;" style="rounded=1;whiteSpace=wrap;html=1;" parent="1" vertex="1">
          <mxGeometry x="-2430" y="-620" width="230" height="40" as="geometry" />
        </mxCell>
        <mxCell id="VEFbPBKXFdE8StxeSwfn-8" value="" style="rounded=1;whiteSpace=wrap;html=1;" parent="1" vertex="1">
          <mxGeometry x="-2180" y="-570" width="740" height="550" as="geometry" />
        </mxCell>
        <mxCell id="VEFbPBKXFdE8StxeSwfn-9" value="&lt;font style=&quot;font-size: 19px;&quot;&gt;Type here...&lt;/font&gt;" style="rounded=1;whiteSpace=wrap;html=1;align=left;" parent="1" vertex="1">
          <mxGeometry x="-2080" y="-90" width="580" height="60" as="geometry" />
        </mxCell>
        <mxCell id="VEFbPBKXFdE8StxeSwfn-12" value="I am thinking that to keep the display window easy to read that we leave the unused area empty. What are your thoughts?&lt;br&gt;&lt;br&gt;Is this how we want to prototype stuff for our project?&lt;br&gt;&lt;br&gt;I think we should also make a simple layout for a mobile application too.&lt;br&gt;&lt;br&gt;My thinking is that for this project we should prototype a main page, a main login page, and a settings page. If we do a mobile layout, we should do the same three.&lt;br&gt;&lt;br&gt;I am open to all of your ideas and please let me know what else I can do with the prototyping stuff." style="shape=note;strokeWidth=2;fontSize=14;size=20;whiteSpace=wrap;html=1;fillColor=#fff2cc;strokeColor=#d6b656;fontColor=#666600;" parent="1" vertex="1">
          <mxGeometry x="-1370" y="-570" width="430" height="380" as="geometry" />
        </mxCell>
        <mxCell id="lRxPT_pOlVi8VR7Kf76E-8" value="&lt;ul style=&quot;font-size: 21px;&quot;&gt;&lt;li style=&quot;text-align: left;&quot;&gt;&lt;span style=&quot;background-color: initial;&quot;&gt;Discrete Math - Linear Independence&lt;/span&gt;&lt;/li&gt;&lt;li style=&quot;text-align: left;&quot;&gt;&lt;span style=&quot;background-color: initial;&quot;&gt;World War 2&lt;/span&gt;&lt;/li&gt;&lt;li style=&quot;text-align: left;&quot;&gt;&lt;span style=&quot;background-color: initial;&quot;&gt;Spanish - Irregular Conjugation&lt;/span&gt;&lt;/li&gt;&lt;/ul&gt;" style="rounded=1;whiteSpace=wrap;html=1;verticalAlign=top;" vertex="1" parent="1">
          <mxGeometry x="-2430" y="-570" width="230" height="550" as="geometry" />
        </mxCell>
        <mxCell id="lRxPT_pOlVi8VR7Kf76E-9" value="&lt;font style=&quot;font-size: 19px;&quot;&gt;Ask a Question&lt;/font&gt;" style="rounded=1;whiteSpace=wrap;html=1;" vertex="1" parent="1">
          <mxGeometry x="-2080" y="-140" width="120" height="40" as="geometry" />
        </mxCell>
        <mxCell id="lRxPT_pOlVi8VR7Kf76E-10" value="&lt;font style=&quot;font-size: 19px;&quot;&gt;Explain&lt;/font&gt;" style="rounded=1;whiteSpace=wrap;html=1;" vertex="1" parent="1">
          <mxGeometry x="-1940" y="-140" width="110" height="40" as="geometry" />
        </mxCell>
        <mxCell id="qjDyNdalp-nVv8cLY3a5-1" value="&lt;font style=&quot;font-size: 36px;&quot;&gt;→&lt;/font&gt;" style="rounded=1;whiteSpace=wrap;html=1;" vertex="1" parent="1">
          <mxGeometry x="-1660" y="-90" width="60" height="60" as="geometry" />
        </mxCell>
        <mxCell id="qjDyNdalp-nVv8cLY3a5-2" value="&lt;font style=&quot;font-size: 17px;&quot;&gt;Upload Notes ↑&lt;br&gt;&lt;/font&gt;" style="rounded=1;whiteSpace=wrap;html=1;" vertex="1" parent="1">
          <mxGeometry x="-1600" y="-90" width="100" height="60" as="geometry" />
        </mxCell>
        <mxCell id="qjDyNdalp-nVv8cLY3a5-5" value="" style="shape=callout;whiteSpace=wrap;html=1;perimeter=calloutPerimeter;size=30;position=0.17;position2=0;" vertex="1" parent="1">
          <mxGeometry x="-2140" y="-320" width="120" height="80" as="geometry" />
        </mxCell>
        <mxCell id="qjDyNdalp-nVv8cLY3a5-7" value="" style="shape=callout;whiteSpace=wrap;html=1;perimeter=calloutPerimeter;size=30;position=0.17;position2=0;" vertex="1" parent="1">
          <mxGeometry x="-2140" y="-490" width="120" height="80" as="geometry" />
        </mxCell>
        <mxCell id="qjDyNdalp-nVv8cLY3a5-8" value="" style="shape=callout;whiteSpace=wrap;html=1;perimeter=calloutPerimeter;size=40;position=0.58;position2=0.92;base=20;" vertex="1" parent="1">
          <mxGeometry x="-1590" y="-410" width="120" height="90" as="geometry" />
        </mxCell>
      </root>
    </mxGraphModel>
  </diagram>
  <diagram id="owFl4HHYqGg_aDCfuLYz" name="Page-2">
    <mxGraphModel dx="1042" dy="569" grid="1" gridSize="10" guides="1" tooltips="1" connect="1" arrows="1" fold="1" page="1" pageScale="1" pageWidth="850" pageHeight="1100" math="0" shadow="0">
      <root>
        <mxCell id="0" />
        <mxCell id="1" parent="0" />
        <mxCell id="nK8D6chfMXaRgaHZ8_OF-2" value="" style="rounded=0;whiteSpace=wrap;html=1;" vertex="1" parent="1">
          <mxGeometry x="45" y="40" width="760" height="440" as="geometry" />
        </mxCell>
        <mxCell id="nK8D6chfMXaRgaHZ8_OF-5" value="&amp;nbsp; &amp;nbsp; &amp;nbsp; Account" style="rounded=1;whiteSpace=wrap;html=1;" vertex="1" parent="1">
          <mxGeometry x="670" y="50" width="120" height="40" as="geometry" />
        </mxCell>
        <mxCell id="nK8D6chfMXaRgaHZ8_OF-7" value="" style="ellipse;whiteSpace=wrap;html=1;aspect=fixed;" vertex="1" parent="1">
          <mxGeometry x="680" y="55" width="30" height="30" as="geometry" />
        </mxCell>
        <mxCell id="nK8D6chfMXaRgaHZ8_OF-9" value="" style="endArrow=none;html=1;rounded=0;entryX=0.158;entryY=0.001;entryDx=0;entryDy=0;entryPerimeter=0;" edge="1" parent="1">
          <mxGeometry width="50" height="50" relative="1" as="geometry">
            <mxPoint x="210" y="479.56" as="sourcePoint" />
            <mxPoint x="210.07999999999993" y="40.00000000000006" as="targetPoint" />
          </mxGeometry>
        </mxCell>
        <mxCell id="nK8D6chfMXaRgaHZ8_OF-10" value="" style="endArrow=none;html=1;rounded=0;entryX=1.002;entryY=0.135;entryDx=0;entryDy=0;entryPerimeter=0;" edge="1" parent="1" target="nK8D6chfMXaRgaHZ8_OF-2">
          <mxGeometry width="50" height="50" relative="1" as="geometry">
            <mxPoint x="210" y="100" as="sourcePoint" />
            <mxPoint x="270" y="100" as="targetPoint" />
          </mxGeometry>
        </mxCell>
        <mxCell id="nK8D6chfMXaRgaHZ8_OF-11" value="" style="endArrow=none;html=1;rounded=0;entryX=1.002;entryY=0.135;entryDx=0;entryDy=0;entryPerimeter=0;" edge="1" parent="1">
          <mxGeometry width="50" height="50" relative="1" as="geometry">
            <mxPoint x="210" y="171" as="sourcePoint" />
            <mxPoint x="807" y="170" as="targetPoint" />
          </mxGeometry>
        </mxCell>
        <mxCell id="nK8D6chfMXaRgaHZ8_OF-12" value="" style="rounded=0;whiteSpace=wrap;html=1;" vertex="1" parent="1">
          <mxGeometry x="210" y="100" width="120" height="70" as="geometry" />
        </mxCell>
        <mxCell id="nK8D6chfMXaRgaHZ8_OF-13" value="" style="rounded=0;whiteSpace=wrap;html=1;" vertex="1" parent="1">
          <mxGeometry x="330" y="100" width="120" height="70" as="geometry" />
        </mxCell>
        <mxCell id="nK8D6chfMXaRgaHZ8_OF-15" value="" style="rounded=0;whiteSpace=wrap;html=1;" vertex="1" parent="1">
          <mxGeometry x="450" y="100" width="120" height="70" as="geometry" />
        </mxCell>
        <mxCell id="nK8D6chfMXaRgaHZ8_OF-16" value="" style="rounded=0;whiteSpace=wrap;html=1;" vertex="1" parent="1">
          <mxGeometry x="570" y="100" width="120" height="70" as="geometry" />
        </mxCell>
        <mxCell id="m57IwmL0aUDkBEaeU6FL-1" value="Date" style="text;html=1;align=center;verticalAlign=middle;resizable=0;points=[];autosize=1;strokeColor=none;fillColor=none;" vertex="1" parent="1">
          <mxGeometry x="210" y="100" width="50" height="30" as="geometry" />
        </mxCell>
        <mxCell id="m57IwmL0aUDkBEaeU6FL-2" value="Date" style="text;html=1;align=center;verticalAlign=middle;resizable=0;points=[];autosize=1;strokeColor=none;fillColor=none;" vertex="1" parent="1">
          <mxGeometry x="330" y="100" width="50" height="30" as="geometry" />
        </mxCell>
        <mxCell id="m57IwmL0aUDkBEaeU6FL-3" value="Date" style="text;html=1;align=center;verticalAlign=middle;resizable=0;points=[];autosize=1;strokeColor=none;fillColor=none;" vertex="1" parent="1">
          <mxGeometry x="450" y="100" width="50" height="30" as="geometry" />
        </mxCell>
        <mxCell id="m57IwmL0aUDkBEaeU6FL-4" value="Date" style="text;html=1;align=center;verticalAlign=middle;resizable=0;points=[];autosize=1;strokeColor=none;fillColor=none;" vertex="1" parent="1">
          <mxGeometry x="570" y="100" width="50" height="30" as="geometry" />
        </mxCell>
        <mxCell id="m57IwmL0aUDkBEaeU6FL-5" value="Date" style="text;html=1;align=center;verticalAlign=middle;resizable=0;points=[];autosize=1;strokeColor=none;fillColor=none;" vertex="1" parent="1">
          <mxGeometry x="690" y="100" width="50" height="30" as="geometry" />
        </mxCell>
        <mxCell id="m57IwmL0aUDkBEaeU6FL-8" value="&lt;font face=&quot;Comic Sans MS&quot; style=&quot;font-size: 27px;&quot;&gt;WordJam&lt;/font&gt;" style="text;html=1;align=center;verticalAlign=middle;resizable=0;points=[];autosize=1;strokeColor=none;fillColor=none;" vertex="1" parent="1">
          <mxGeometry x="45" y="40" width="150" height="50" as="geometry" />
        </mxCell>
        <mxCell id="m57IwmL0aUDkBEaeU6FL-9" value="AI" style="text;html=1;align=center;verticalAlign=middle;resizable=0;points=[];autosize=1;strokeColor=none;fillColor=none;" vertex="1" parent="1">
          <mxGeometry x="160" y="70" width="30" height="30" as="geometry" />
        </mxCell>
        <mxCell id="m57IwmL0aUDkBEaeU6FL-10" value="&lt;font style=&quot;font-size: 36px;&quot;&gt;Welcome Back, User&lt;/font&gt;" style="text;html=1;align=center;verticalAlign=middle;resizable=0;points=[];autosize=1;strokeColor=none;fillColor=none;" vertex="1" parent="1">
          <mxGeometry x="270" y="40" width="360" height="60" as="geometry" />
        </mxCell>
        <mxCell id="m57IwmL0aUDkBEaeU6FL-11" value="" style="whiteSpace=wrap;html=1;aspect=fixed;" vertex="1" parent="1">
          <mxGeometry x="405" y="220" width="210" height="210" as="geometry" />
        </mxCell>
        <mxCell id="m57IwmL0aUDkBEaeU6FL-13" value="" style="rounded=0;whiteSpace=wrap;html=1;" vertex="1" parent="1">
          <mxGeometry x="325" y="260" width="80" height="130" as="geometry" />
        </mxCell>
        <mxCell id="m57IwmL0aUDkBEaeU6FL-14" value="" style="rounded=0;whiteSpace=wrap;html=1;" vertex="1" parent="1">
          <mxGeometry x="615" y="260" width="80" height="130" as="geometry" />
        </mxCell>
        <mxCell id="m57IwmL0aUDkBEaeU6FL-15" value="" style="rounded=0;whiteSpace=wrap;html=1;" vertex="1" parent="1">
          <mxGeometry x="695" y="285" width="40" height="80" as="geometry" />
        </mxCell>
        <mxCell id="m57IwmL0aUDkBEaeU6FL-16" value="" style="rounded=0;whiteSpace=wrap;html=1;" vertex="1" parent="1">
          <mxGeometry x="285" y="285" width="40" height="80" as="geometry" />
        </mxCell>
        <mxCell id="m57IwmL0aUDkBEaeU6FL-17" value="" style="triangle;whiteSpace=wrap;html=1;fillColor=#dae8fc;strokeColor=#6c8ebf;" vertex="1" parent="1">
          <mxGeometry x="760" y="315" width="10" height="20" as="geometry" />
        </mxCell>
        <mxCell id="m57IwmL0aUDkBEaeU6FL-18" value="" style="triangle;whiteSpace=wrap;html=1;fillColor=#dae8fc;strokeColor=#6c8ebf;direction=west;" vertex="1" parent="1">
          <mxGeometry x="250" y="315" width="10" height="20" as="geometry" />
        </mxCell>
        <mxCell id="m57IwmL0aUDkBEaeU6FL-19" value="Study Set" style="text;html=1;strokeColor=none;fillColor=none;align=center;verticalAlign=middle;whiteSpace=wrap;rounded=0;" vertex="1" parent="1">
          <mxGeometry x="480" y="255" width="60" height="30" as="geometry" />
        </mxCell>
        <mxCell id="m57IwmL0aUDkBEaeU6FL-20" value="Study Set" style="text;html=1;strokeColor=none;fillColor=none;align=center;verticalAlign=middle;whiteSpace=wrap;rounded=0;" vertex="1" parent="1">
          <mxGeometry x="625" y="285" width="60" height="30" as="geometry" />
        </mxCell>
        <mxCell id="m57IwmL0aUDkBEaeU6FL-21" value="Study Set" style="text;html=1;strokeColor=none;fillColor=none;align=center;verticalAlign=middle;whiteSpace=wrap;rounded=0;" vertex="1" parent="1">
          <mxGeometry x="335" y="280" width="60" height="30" as="geometry" />
        </mxCell>
        <mxCell id="m57IwmL0aUDkBEaeU6FL-22" value="Study Set" style="text;html=1;strokeColor=none;fillColor=none;align=center;verticalAlign=middle;whiteSpace=wrap;rounded=0;" vertex="1" parent="1">
          <mxGeometry x="700" y="310" width="30" height="30" as="geometry" />
        </mxCell>
        <mxCell id="m57IwmL0aUDkBEaeU6FL-24" value="Study Set" style="text;html=1;strokeColor=none;fillColor=none;align=center;verticalAlign=middle;whiteSpace=wrap;rounded=0;" vertex="1" parent="1">
          <mxGeometry x="290" y="310" width="30" height="30" as="geometry" />
        </mxCell>
        <mxCell id="m57IwmL0aUDkBEaeU6FL-25" value="Search Study Sets" style="strokeWidth=1;shadow=0;dashed=0;align=center;html=1;shape=mxgraph.mockup.text.textBox;fontColor=#666666;align=left;fontSize=17;spacingLeft=4;spacingTop=-3;whiteSpace=wrap;strokeColor=#666666;mainText=" vertex="1" parent="1">
          <mxGeometry x="220" y="180" width="180" height="30" as="geometry" />
        </mxCell>
        <mxCell id="m57IwmL0aUDkBEaeU6FL-26" value="&lt;font style=&quot;font-size: 15px;&quot;&gt;Study&lt;/font&gt;" style="strokeWidth=1;html=1;shadow=0;dashed=0;shape=mxgraph.ios.iTextInput;strokeColor=#444444;buttonText=;fontSize=8;whiteSpace=wrap;align=center;" vertex="1" parent="1">
          <mxGeometry x="465" y="330" width="90" height="30" as="geometry" />
        </mxCell>
        <mxCell id="m57IwmL0aUDkBEaeU6FL-27" value="+ Create Study Set" style="strokeWidth=1;shadow=0;dashed=0;align=center;html=1;shape=mxgraph.mockup.text.textBox;fontColor=#666666;align=left;fontSize=17;spacingLeft=4;spacingTop=-3;whiteSpace=wrap;strokeColor=#666666;mainText=" vertex="1" parent="1">
          <mxGeometry x="420" y="440" width="180" height="30" as="geometry" />
        </mxCell>
      </root>
    </mxGraphModel>
  </diagram>
  <diagram id="TybGXz4lcO9ECxND_ROY" name="Page-2">
    <mxGraphModel dx="1588" dy="848" grid="1" gridSize="10" guides="1" tooltips="1" connect="1" arrows="1" fold="1" page="1" pageScale="1" pageWidth="850" pageHeight="1100" math="0" shadow="0">
      <root>
        <mxCell id="0" />
        <mxCell id="1" parent="0" />
        <mxCell id="XGJTgZMwI9LA0cDU6DCc-1" value="" style="rounded=0;whiteSpace=wrap;html=1;" vertex="1" parent="1">
          <mxGeometry x="130" y="150" width="1070" height="710" as="geometry" />
        </mxCell>
        <mxCell id="XGJTgZMwI9LA0cDU6DCc-2" value="&lt;span style=&quot;font-size: 38px;&quot;&gt;World War 2&lt;br&gt;&lt;/span&gt;" style="rounded=1;whiteSpace=wrap;html=1;" vertex="1" parent="1">
          <mxGeometry x="440" y="160" width="660" height="60" as="geometry" />
        </mxCell>
        <mxCell id="XGJTgZMwI9LA0cDU6DCc-3" value="&lt;span style=&quot;font-size: 24px;&quot;&gt;Topics&lt;/span&gt;" style="rounded=1;whiteSpace=wrap;html=1;" vertex="1" parent="1">
          <mxGeometry x="150" y="190" width="230" height="40" as="geometry" />
        </mxCell>
        <mxCell id="XGJTgZMwI9LA0cDU6DCc-4" value="" style="rounded=1;whiteSpace=wrap;html=1;" vertex="1" parent="1">
          <mxGeometry x="400" y="240" width="740" height="550" as="geometry" />
        </mxCell>
        <mxCell id="XGJTgZMwI9LA0cDU6DCc-5" value="&lt;font style=&quot;font-size: 19px;&quot;&gt;Type here...&lt;/font&gt;" style="rounded=1;whiteSpace=wrap;html=1;align=left;" vertex="1" parent="1">
          <mxGeometry x="500" y="720" width="580" height="60" as="geometry" />
        </mxCell>
        <mxCell id="XGJTgZMwI9LA0cDU6DCc-6" value="&lt;ul style=&quot;font-size: 21px;&quot;&gt;&lt;li style=&quot;text-align: left;&quot;&gt;&lt;span style=&quot;background-color: initial;&quot;&gt;Discrete Math - Linear Independence&lt;/span&gt;&lt;/li&gt;&lt;li style=&quot;text-align: left;&quot;&gt;&lt;span style=&quot;background-color: initial;&quot;&gt;World War 2&lt;/span&gt;&lt;/li&gt;&lt;li style=&quot;text-align: left;&quot;&gt;&lt;span style=&quot;background-color: initial;&quot;&gt;Spanish - Irregular Conjugation&lt;/span&gt;&lt;/li&gt;&lt;/ul&gt;" style="rounded=1;whiteSpace=wrap;html=1;verticalAlign=top;" vertex="1" parent="1">
          <mxGeometry x="150" y="240" width="230" height="550" as="geometry" />
        </mxCell>
        <mxCell id="XGJTgZMwI9LA0cDU6DCc-7" value="&lt;font style=&quot;font-size: 19px;&quot;&gt;Ask a Question&lt;/font&gt;" style="rounded=1;whiteSpace=wrap;html=1;" vertex="1" parent="1">
          <mxGeometry x="500" y="670" width="120" height="40" as="geometry" />
        </mxCell>
        <mxCell id="XGJTgZMwI9LA0cDU6DCc-8" value="&lt;font style=&quot;font-size: 19px;&quot;&gt;Explain&lt;/font&gt;" style="rounded=1;whiteSpace=wrap;html=1;" vertex="1" parent="1">
          <mxGeometry x="640" y="670" width="110" height="40" as="geometry" />
        </mxCell>
        <mxCell id="XGJTgZMwI9LA0cDU6DCc-9" value="&lt;font style=&quot;font-size: 36px;&quot;&gt;→&lt;/font&gt;" style="rounded=1;whiteSpace=wrap;html=1;" vertex="1" parent="1">
          <mxGeometry x="920" y="720" width="60" height="60" as="geometry" />
        </mxCell>
        <mxCell id="XGJTgZMwI9LA0cDU6DCc-10" value="&lt;font style=&quot;font-size: 17px;&quot;&gt;Upload Notes ↑&lt;br&gt;&lt;/font&gt;" style="rounded=1;whiteSpace=wrap;html=1;" vertex="1" parent="1">
          <mxGeometry x="980" y="720" width="100" height="60" as="geometry" />
        </mxCell>
        <mxCell id="XGJTgZMwI9LA0cDU6DCc-11" value="" style="shape=callout;whiteSpace=wrap;html=1;perimeter=calloutPerimeter;size=30;position=0.17;position2=0;" vertex="1" parent="1">
          <mxGeometry x="440" y="490" width="120" height="80" as="geometry" />
        </mxCell>
        <mxCell id="XGJTgZMwI9LA0cDU6DCc-12" value="" style="shape=callout;whiteSpace=wrap;html=1;perimeter=calloutPerimeter;size=30;position=0.17;position2=0;" vertex="1" parent="1">
          <mxGeometry x="440" y="320" width="120" height="80" as="geometry" />
        </mxCell>
        <mxCell id="XGJTgZMwI9LA0cDU6DCc-13" value="" style="shape=callout;whiteSpace=wrap;html=1;perimeter=calloutPerimeter;size=40;position=0.58;position2=0.92;base=20;" vertex="1" parent="1">
          <mxGeometry x="990" y="400" width="120" height="90" as="geometry" />
        </mxCell>
      </root>
    </mxGraphModel>
  </diagram>
  <diagram id="jEjdawhZugyaqBMWrbFC" name="Page-3">
    <mxGraphModel dx="1588" dy="848" grid="1" gridSize="10" guides="1" tooltips="1" connect="1" arrows="1" fold="1" page="1" pageScale="1" pageWidth="850" pageHeight="1100" math="0" shadow="0">
      <root>
        <mxCell id="0" />
        <mxCell id="1" parent="0" />
        <mxCell id="rR0To2OGC2kg8iHvULuq-1" value="" style="rounded=0;whiteSpace=wrap;html=1;" vertex="1" parent="1">
          <mxGeometry x="220" y="180" width="1070" height="710" as="geometry" />
        </mxCell>
        <mxCell id="rR0To2OGC2kg8iHvULuq-2" value="&lt;span style=&quot;font-size: 38px;&quot;&gt;Spanish - Irregular Conjugation&lt;br&gt;&lt;/span&gt;" style="rounded=1;whiteSpace=wrap;html=1;" vertex="1" parent="1">
          <mxGeometry x="530" y="190" width="660" height="60" as="geometry" />
        </mxCell>
        <mxCell id="rR0To2OGC2kg8iHvULuq-3" value="&lt;span style=&quot;font-size: 24px;&quot;&gt;Topics&lt;/span&gt;" style="rounded=1;whiteSpace=wrap;html=1;" vertex="1" parent="1">
          <mxGeometry x="240" y="220" width="230" height="40" as="geometry" />
        </mxCell>
        <mxCell id="rR0To2OGC2kg8iHvULuq-4" value="" style="rounded=1;whiteSpace=wrap;html=1;" vertex="1" parent="1">
          <mxGeometry x="490" y="270" width="740" height="550" as="geometry" />
        </mxCell>
        <mxCell id="rR0To2OGC2kg8iHvULuq-5" value="&lt;font style=&quot;font-size: 19px;&quot;&gt;Type here...&lt;/font&gt;" style="rounded=1;whiteSpace=wrap;html=1;align=left;" vertex="1" parent="1">
          <mxGeometry x="590" y="750" width="580" height="60" as="geometry" />
        </mxCell>
        <mxCell id="rR0To2OGC2kg8iHvULuq-6" value="&lt;ul style=&quot;font-size: 21px;&quot;&gt;&lt;li style=&quot;text-align: left;&quot;&gt;&lt;span style=&quot;background-color: initial;&quot;&gt;Discrete Math - Linear Independence&lt;/span&gt;&lt;/li&gt;&lt;li style=&quot;text-align: left;&quot;&gt;&lt;span style=&quot;background-color: initial;&quot;&gt;World War 2&lt;/span&gt;&lt;/li&gt;&lt;li style=&quot;text-align: left;&quot;&gt;&lt;span style=&quot;background-color: initial;&quot;&gt;Spanish - Irregular Conjugation&lt;/span&gt;&lt;/li&gt;&lt;/ul&gt;" style="rounded=1;whiteSpace=wrap;html=1;verticalAlign=top;" vertex="1" parent="1">
          <mxGeometry x="240" y="270" width="230" height="550" as="geometry" />
        </mxCell>
        <mxCell id="rR0To2OGC2kg8iHvULuq-7" value="&lt;font style=&quot;font-size: 19px;&quot;&gt;Ask a Question&lt;/font&gt;" style="rounded=1;whiteSpace=wrap;html=1;" vertex="1" parent="1">
          <mxGeometry x="590" y="700" width="120" height="40" as="geometry" />
        </mxCell>
        <mxCell id="rR0To2OGC2kg8iHvULuq-8" value="&lt;font style=&quot;font-size: 19px;&quot;&gt;Explain&lt;/font&gt;" style="rounded=1;whiteSpace=wrap;html=1;" vertex="1" parent="1">
          <mxGeometry x="730" y="700" width="110" height="40" as="geometry" />
        </mxCell>
        <mxCell id="rR0To2OGC2kg8iHvULuq-9" value="&lt;font style=&quot;font-size: 36px;&quot;&gt;→&lt;/font&gt;" style="rounded=1;whiteSpace=wrap;html=1;" vertex="1" parent="1">
          <mxGeometry x="1010" y="750" width="60" height="60" as="geometry" />
        </mxCell>
        <mxCell id="rR0To2OGC2kg8iHvULuq-10" value="&lt;font style=&quot;font-size: 17px;&quot;&gt;Upload Notes ↑&lt;br&gt;&lt;/font&gt;" style="rounded=1;whiteSpace=wrap;html=1;" vertex="1" parent="1">
          <mxGeometry x="1070" y="750" width="100" height="60" as="geometry" />
        </mxCell>
        <mxCell id="rR0To2OGC2kg8iHvULuq-11" value="" style="shape=callout;whiteSpace=wrap;html=1;perimeter=calloutPerimeter;size=30;position=0.17;position2=0;" vertex="1" parent="1">
          <mxGeometry x="530" y="520" width="120" height="80" as="geometry" />
        </mxCell>
        <mxCell id="rR0To2OGC2kg8iHvULuq-12" value="" style="shape=callout;whiteSpace=wrap;html=1;perimeter=calloutPerimeter;size=30;position=0.17;position2=0;" vertex="1" parent="1">
          <mxGeometry x="530" y="350" width="120" height="80" as="geometry" />
        </mxCell>
        <mxCell id="rR0To2OGC2kg8iHvULuq-13" value="" style="shape=callout;whiteSpace=wrap;html=1;perimeter=calloutPerimeter;size=40;position=0.58;position2=0.92;base=20;" vertex="1" parent="1">
          <mxGeometry x="1080" y="430" width="120" height="90" as="geometry" />
        </mxCell>
      </root>
    </mxGraphModel>
  </diagram>
</mxfile>
